<?xml version="1.0" standalone="no"?><!DOCTYPE svg PUBLIC "-//W3C//DTD SVG 1.1//EN" "http://www.w3.org/Graphics/SVG/1.1/DTD/svg11.dtd"><svg t="1730558917798" class="icon" viewBox="0 0 1024 1024" version="1.1" xmlns="http://www.w3.org/2000/svg" p-id="18355" xmlns:xlink="http://www.w3.org/1999/xlink" width="200" height="200"><path d="M146.08 742.08c16 11.68 32-8.96 43.2-29.6s18.56-38.4 20.48-32 3.68 12.64 6.08 19.36A275.04 275.04 0 0 0 266.56 784c4.96 5.6-29.92 16-50.72 51.36s5.92 100 109.6 100c133.76 0 163.68-47.04 166.4-46.88a188.8 188.8 0 0 0 21.28 0 113.44 113.44 0 0 0 19.52 0c3.04 0 18.56 11.84 43.52 24a216.96 216.96 0 0 0 117.92 22.88c153.28-16 129.92-67.52 117.92-100s-57.12-49.6-55.04-51.84a230.72 230.72 0 0 0 55.04-102.72c2.4-7.36 12 12 24.32 32s29.6 41.6 43.68 29.6c11.36-9.76 34.24-50.08 11.36-135.36s-66.88-104.96-65.92-120.96a305.6 305.6 0 0 0-0.8-62.88C816 393.6 800 400 800 393.6 800 224 672 87.36 515.36 87.36S231.36 224 231.36 393.6c0 13.44-11.84 3.52-21.6 29.28-4.48 11.52 1.92 18.88 0 62.88 0 11.84-51.68 65.28-71.84 120.96s-22.88 113.28 8.16 135.36z" fill="#68A5E1" p-id="18356"></path></svg>