<?xml version="1.0" standalone="no"?><!DOCTYPE svg PUBLIC "-//W3C//DTD SVG 1.1//EN" "http://www.w3.org/Graphics/SVG/1.1/DTD/svg11.dtd"><svg t="1730555463800" class="icon" viewBox="0 0 1024 1024" version="1.1" xmlns="http://www.w3.org/2000/svg" p-id="5521" xmlns:xlink="http://www.w3.org/1999/xlink" width="200" height="200"><path d="M781.473684 215.578947a107.789474 107.789474 0 0 1 107.789474 107.789474v377.263158a107.789474 107.789474 0 0 1-107.789474 107.789474H269.473684a107.789474 107.789474 0 0 1-107.789473-107.789474V323.368421a107.789474 107.789474 0 0 1 107.789473-107.789474h512z m-263.06021 328.111158c-16.276211 0-31.178105 2.694737-44.678737 8.084211-13.500632 5.416421-24.953263 12.934737-34.304 22.501052a98.034526 98.034526 0 0 0-21.557895 33.818948c-4.958316 12.988632-7.464421 26.947368-7.464421 41.903158 0 14.309053 2.425263 27.378526 7.27579 39.208421 4.850526 11.829895 11.991579 22.016 21.423157 30.531368 9.431579 8.515368 21.072842 15.063579 34.896843 19.590737 13.824 4.527158 29.372632 6.790737 46.618947 6.790737 11.506526 0 22.150737-1.077895 31.905684-3.17979 9.754947-2.101895 18.566737-5.173895 26.408421-9.189052 7.868632-4.042105 14.740211-9.000421 20.58779-14.901895a74.374737 74.374737 0 0 0 11.317894-14.632421l2.964211-5.470316h-22.447158a64.943158 64.943158 0 0 1-22.905263 18.324211c-9.000421 4.311579-19.994947 7.275789-32.983579 8.838737-16.357053 1.670737-30.989474 1.077895-44.005053-1.751579a86.042947 86.042947 0 0 1-33.199158-14.416843 67.045053 67.045053 0 0 1-20.938105-25.168842 75.398737 75.398737 0 0 1-7.221895-33.091368c0-9.054316 1.131789-17.946947 3.368421-26.624a89.734737 89.734737 0 0 1 9.781895-23.794526c4.850526-8.218947 10.886737-15.090526 18.108632-20.695579 7.221895-5.578105 15.629474-9.862737 25.168842-12.826948a105.094737 105.094737 0 0 1 31.474526-4.473263c11.210105 0 21.288421 1.536 30.154105 4.608 8.892632 3.098947 16.330105 7.383579 22.366316 12.853895 6.036211 5.470316 10.644211 11.937684 13.850948 19.375158 3.179789 7.437474 4.769684 15.36 4.769684 23.794526 0 10.105263-2.209684 19.402105-6.682948 27.944421-4.446316 8.515368-9.701053 15.252211-15.683368 20.210526-5.982316 4.931368-10.886737 7.410526-14.686316 7.410527a3.745684 3.745684 0 0 1-2.883368-1.347369 5.524211 5.524211 0 0 1-1.212632-3.799579c0-1.239579 0.323368-3.503158 0.943158-6.817684l0.538947-2.667789 15.97979-75.452632h-27.75579l-2.667789 11.668211c-5.874526-9.485474-15.144421-14.201263-27.755789-14.201263-11.048421 0-20.911158 3.395368-29.642106 10.186105a67.098947 67.098947 0 0 0-20.210526 26.219789 79.440842 79.440842 0 0 0-7.114105 32.525474c0 10.590316 2.290526 19.509895 6.898526 26.731789 4.581053 7.248842 10.617263 12.395789 18.054737 15.440843 7.437474 3.045053 15.090526 3.772632 23.04 2.209684 7.922526-1.589895 14.955789-5.389474 21.045895-11.425684a14.282105 14.282105 0 0 0 6.332631 9.216c3.152842 1.913263 7.572211 2.883368 13.258105 2.883368a61.44 61.44 0 0 0 27.486316-6.25179c8.488421-4.176842 15.872-9.862737 22.150737-17.057684 6.278737-7.194947 11.102316-15.306105 14.470737-24.333473 3.368421-9.000421 5.039158-18.216421 5.039158-27.621053 0-12.072421-2.074947-23.093895-6.25179-33.091368a73.162105 73.162105 0 0 0-18.162526-25.950316 81.273263 81.273263 0 0 0-28.564211-16.788211 110.349474 110.349474 0 0 0-36.702315-5.847579z m-8.838737 61.898106a16.976842 16.976842 0 0 1 14.470737 6.844631c1.724632 2.236632 3.018105 4.850526 3.907368 7.814737 0.862316 2.991158 1.320421 6.359579 1.320421 10.078316 0 7.491368-1.320421 15.279158-3.907368 23.309473a51.2 51.2 0 0 1-11.425684 19.941053 23.390316 23.390316 0 0 1-17.408 7.895579 16.680421 16.680421 0 0 1-13.797053-6.736842c-3.503158-4.500211-5.254737-10.940632-5.254737-19.375158 0-8.192 1.347368-16.168421 3.988211-23.821474a47.157895 47.157895 0 0 1 11.425684-18.755368 23.363368 23.363368 0 0 1 16.707368-7.194947z m275.752421-321.077895l-2.883369 1.778526-256.997052 178.876632-256.943158-178.876632-2.883368-1.778526a26.947368 26.947368 0 0 0-30.558316 43.92421l2.640842 2.074948 260.796631 181.598315a26.947368 26.947368 0 0 0 27.001264 14.713264 26.947368 26.947368 0 0 0 26.947368-14.713264l260.796632-181.598315a26.947368 26.947368 0 0 0-27.917474-45.999158z" fill="#e0620d" p-id="5522"></path></svg>