<?xml version="1.0" standalone="no"?><!DOCTYPE svg PUBLIC "-//W3C//DTD SVG 1.1//EN" "http://www.w3.org/Graphics/SVG/1.1/DTD/svg11.dtd"><svg t="1730557499252" class="icon" viewBox="0 0 1024 1024" version="1.1" xmlns="http://www.w3.org/2000/svg" p-id="7653" xmlns:xlink="http://www.w3.org/1999/xlink" width="200" height="200"><path d="M826.1 259.6H513L465.5 184c-9.3-14.7-25.4-23.7-42.7-23.7H188.9c-42.3 0-76.5 34.6-76.5 77.2V777.3c0 47.2 38.3 85.5 85.5 85.5H826c47.2 0 85.5-38.3 85.5-85.5V345.2c0.1-47.3-38.2-85.6-85.4-85.6z m-491.3 236c31.1-93.5 142.9-149.1 242.4-111.8 28.1 11.3 53.5 28.2 74.9 49.7l-55.9 37.3c-23.5-23-55.4-35.4-88.3-34.2-32.9 1.2-63.8 15.8-85.7 40.4l-18.7 18.6h49.7l-80.8 86.8-86.8-86.8h49.2zM689 626.1c-31 74.6-105.6 124.3-180.2 124.3-54-0.8-105.5-23.2-142.9-62.1l55.9-31c24.8 18.6 49.7 31 80.8 31 43.5 0 86.8-24.8 105.6-62.2h-43.4l86.8-86.8 86.8 86.8H689z" fill="#508AFF" p-id="7654"></path></svg>