<?xml version="1.0" standalone="no"?><!DOCTYPE svg PUBLIC "-//W3C//DTD SVG 1.1//EN" "http://www.w3.org/Graphics/SVG/1.1/DTD/svg11.dtd"><svg t="1730557847378" class="icon" viewBox="0 0 1024 1024" version="1.1" xmlns="http://www.w3.org/2000/svg" p-id="17279" xmlns:xlink="http://www.w3.org/1999/xlink" width="200" height="200"><path d="M89.043478 92.338087h242.866087a89.043478 89.043478 0 0 1 89.043478 89.043478V424.292174a89.043478 89.043478 0 0 1-89.043478 89.043478H89.043478a89.043478 89.043478 0 0 1-89.043478-89.043478V181.381565a89.043478 89.043478 0 0 1 89.043478-89.043478z m446.018783 41.093565L745.382957 12.02087a89.043478 89.043478 0 0 1 121.633391 32.589913L988.382609 254.931478a89.043478 89.043478 0 0 1-32.589913 121.633392l-210.320696 121.410782a89.043478 89.043478 0 0 1-121.633391-32.589913l-121.410783-210.320696a89.043478 89.043478 0 0 1 32.589913-121.633391z m44.521739 77.111652l121.410783 210.320696 210.320695-121.410783-121.410782-210.320695zM89.043478 578.025739h242.866087a89.043478 89.043478 0 0 1 89.043478 89.043478v242.866087a89.043478 89.043478 0 0 1-89.043478 89.043479H89.043478a89.043478 89.043478 0 0 1-89.043478-89.043479v-242.866087a89.043478 89.043478 0 0 1 89.043478-89.043478z m485.732174 0h242.821565a89.043478 89.043478 0 0 1 89.043479 89.043478v242.866087a89.043478 89.043478 0 0 1-89.043479 89.043479h-242.866087a89.043478 89.043478 0 0 1-89.043478-89.043479v-242.866087a89.043478 89.043478 0 0 1 89.043478-89.043478z" fill="#189821" p-id="17280"></path></svg>