<?xml version="1.0" standalone="no"?><!DOCTYPE svg PUBLIC "-//W3C//DTD SVG 1.1//EN" "http://www.w3.org/Graphics/SVG/1.1/DTD/svg11.dtd"><svg t="1730557399060" class="icon" viewBox="0 0 1024 1024" version="1.1" xmlns="http://www.w3.org/2000/svg" p-id="6625" xmlns:xlink="http://www.w3.org/1999/xlink" width="200" height="200"><path d="M893.294592 969.004032c53.467136 0 96.815104-43.343872 96.815104-96.815104l0-44.265472 0.201728-27.355136L990.311424 166.57408c0-53.467136-43.343872-96.815104-96.815104-96.815104 0 0-706.738176 0-706.75456 0-35.34336 0-68.575232 19.890176-85.316608 51.014656-8.502272 15.811584-11.231232 32.458752-11.510784 50.187264-0.362496 23.149568-16.8448 20.350976-31.634432 33.545216-9.824256 8.76544-15.536128 21.511168-15.536128 34.676736 0 0.045056 0 101.609472 0 101.609472 0 13.292544 5.807104 26.128384 15.762432 34.898944 6.761472 5.95456 16.136192 6.71232 23.264256 11.901952 9.0624 6.596608 8.157184 13.80352 8.157184 24.169472 0 25.964544 0 51.923968 0 77.884416 0 30.029824 0 60.056576 0 90.0864 0 10.921984 0.201728 21.865472 0 32.78336-0.37888 20.844544-19.499008 18.510848-32.162816 30.153728-9.515008 8.749056-15.021056 21.280768-15.021056 34.207744 0 0.057344 0 101.588992 0 101.635072 0 12.527616 5.165056 24.705024 14.173184 33.41312 4.399104 4.247552 9.629696 7.621632 15.326208 9.851904 11.885568 4.663296 17.654784 8.22272 17.68448 21.865472 0.024576 9.893888 0 19.790848 0 29.684736 0 53.471232 43.346944 96.815104 96.815104 96.815104l534.84544 0 40.013824 0L893.294592 969.004032z" fill="#FF9000" p-id="6626"></path><path d="M606.831616 874.687488l-17.548288 0-27.660288 0.20992L187.712512 874.897408l0-18.004992c0 0-8.1152-100.573184 140.003328-126.318592 0 0 112.749568-15.218688 120.643584-46.22848 0 0 4.304896-3.452928 1.127424-39.462912-6.765568-76.669952-56.940544-112.754688-77.234176-142.068736-20.296704-29.318144-21.988352-63.142912-21.988352-63.142912 0-8.45312 3.538944-11.551744 9.428992-16.984064 7.27552-6.71232 5.0944-13.848576 3.703808-21.408768-5.28896-28.696576-5.753856-74.79808-0.729088-103.675904 1.127424-34.388992 32.697344-62.015488 32.697344-62.015488 5.921792-5.024768 11.860992-10.55232 16.017408-17.181696 1.160192-1.84832 2.230272-3.827712 2.864128-5.925888 2.378752-7.918592-5.675008-13.728768-4.057088-22.153216 1.456128-7.588864 14.46912-7.963648 22.33856-8.375296 17.72544-0.933888 35.536896-1.634304 53.23264-0.275456 132.434944 10.15296 175.975424 58.904576 175.975424 58.904576 10.309632 12.346368 17.103872 27.442176 21.190656 42.91584 1.222656 4.629504 2.272256 9.350144 2.839552 14.107648 4.13184 23.716864 4.115456 48.45056 2.83136 72.419328-0.613376 11.428864-1.938432 22.67648-3.617792 33.985536-0.88064 5.921792-0.428032 11.428864 3.526656 16.157696 3.304448 3.954688 7.087104 6.720512 8.708096 11.918336 0.756736 2.432 0.954368 5.057536 0.954368 7.588864 0 0-1.691648 33.824768-21.984256 63.142912-20.297728 29.314048-70.47168 65.39776-77.238272 142.068736-3.177472 36.009984 1.128448 39.462912 1.128448 39.462912 7.892992 31.009792 120.64768 46.22848 120.64768 46.22848 149.772288 27.779072 139.998208 126.318592 139.998208 126.318592l0 18.004992-98.601984 0 15.532032-0.20992-13.259776 0-27.503616 0L606.831616 874.689536 606.831616 874.687488z" fill="#FFFFFF" p-id="6627"></path></svg>