<?xml version="1.0" standalone="no"?><!DOCTYPE svg PUBLIC "-//W3C//DTD SVG 1.1//EN" "http://www.w3.org/Graphics/SVG/1.1/DTD/svg11.dtd"><svg t="1730557767205" class="icon" viewBox="0 0 1024 1024" version="1.1" xmlns="http://www.w3.org/2000/svg" p-id="13952" xmlns:xlink="http://www.w3.org/1999/xlink" width="200" height="200"><path d="M80.5 672h128v64h-128z" p-id="13953" fill="#1afa29"></path><path d="M847.5 960h-640c-52.9 0-96-43.1-96-96v-97h64v97c0 17.6 14.4 32 32 32h640c17.6 0 32-14.4 32-32V160c0-17.6-14.4-32-32-32h-640c-17.6 0-32 14.4-32 32v95.1h-64V160c0-52.9 43.1-96 96-96h640c52.9 0 96 43.1 96 96v704c0 52.9-43.1 96-96 96z" p-id="13954" fill="#1afa29"></path><path d="M112.5 384h64v256h-64zM80.5 288h128v64h-128zM615.3 322.7L342.1 712.9l-22.5 143.8L447 786.3l273.2-390.2-104.9-73.4zM707.1 191.6l-55 78.7 104.8 73.4 55.1-78.6-104.9-73.5z" p-id="13955" fill="#1afa29"></path></svg>