<?xml version="1.0" standalone="no"?><!DOCTYPE svg PUBLIC "-//W3C//DTD SVG 1.1//EN" "http://www.w3.org/Graphics/SVG/1.1/DTD/svg11.dtd"><svg t="1730557537049" class="icon" viewBox="0 0 1077 1024" version="1.1" xmlns="http://www.w3.org/2000/svg" p-id="8659" xmlns:xlink="http://www.w3.org/1999/xlink" width="210.3515625" height="200"><path d="M1022.618084 134.59865H471.509852V55.82942a55.276653 55.276653 0 0 0-55.276654-55.276653H55.276653a55.276653 55.276653 0 0 0-55.276653 55.276653v912.064777a55.276653 55.276653 0 0 0 55.276653 55.276653h967.341431a55.276653 55.276653 0 0 0 55.276653-55.276653V189.875304a55.276653 55.276653 0 0 0-55.276653-55.276654zM55.276653 55.82942h360.956545v78.76923H55.276653z m758.395682 570.178677L525.128205 867.014305a221.106613 221.106613 0 0 1-138.191633 48.919838 232.991093 232.991093 0 0 1-23.768961 0 175.226991 175.226991 0 0 1-121.608637-63.291768c-66.331984-85.402429-64.120918-184.071255 4.145749-248.744939a60.804318 60.804318 0 0 1 3.869366-4.974899l149.523347-124.37247a150.905263 150.905263 0 0 1 108.618623-34.824291 124.096086 124.096086 0 0 1 84.849663 43.944939 138.191633 138.191633 0 0 1-27.638327 191.809987l-107.51309 89.548178a27.638327 27.638327 0 0 1-17.688529 6.356815 27.638327 27.638327 0 0 1-21.281511-9.949798 27.638327 27.638327 0 0 1 2.487449-42.286639l107.51309-89.271795a82.91498 82.91498 0 0 0 19.346829-114.422672 70.20135 70.20135 0 0 0-47.261539-24.045344 95.904993 95.904993 0 0 0-68.266666 22.387044l-140.679083 117.186505-1.658299 2.211066c-67.161134 55.276653-45.603239 133.769501-6.909582 183.518489a120.226721 120.226721 0 0 0 82.91498 42.286639 165.82996 165.82996 0 0 0 121.608637-34.824291l289.926046-241.282591a142.613765 142.613765 0 0 0 18.241295-200.101485 141.784615 141.784615 0 0 0-199.548718-18.517679l-33.718758 27.638327a27.638327 27.638327 0 0 1-38.693657-3.592982 27.638327 27.638327 0 0 1 3.316599-38.970041l33.718758-27.638327a197.337652 197.337652 0 0 1 276.383266 25.703644 197.890418 197.890418 0 0 1-23.492577 278.594332z" p-id="8660" fill="#82529d"></path></svg>