<?xml version="1.0" standalone="no"?><!DOCTYPE svg PUBLIC "-//W3C//DTD SVG 1.1//EN" "http://www.w3.org/Graphics/SVG/1.1/DTD/svg11.dtd"><svg t="1730557714863" class="icon" viewBox="0 0 1024 1024" version="1.1" xmlns="http://www.w3.org/2000/svg" p-id="12295" xmlns:xlink="http://www.w3.org/1999/xlink" width="200" height="200"><path d="M968.96 51.84H55.04A55.296 55.296 0 0 0 0 106.88V359.68a55.168 55.168 0 0 0 55.04 55.04H128V278.4h-4.736a44.8 44.8 0 1 1 0-89.6h777.472a44.8 44.8 0 1 1 0 89.6h-4.096V414.72h72.32a56.064 56.064 0 0 0 55.04-55.04V106.88a55.296 55.296 0 0 0-55.04-55.04z" fill="#1296db" p-id="12296"></path><path d="M822.272 233.6H201.728a37.248 37.248 0 0 0-25.6 10.88 36.608 36.608 0 0 0-10.88 26.368v685.824a17.152 17.152 0 0 0 24.064 13.824c9.6-5.504 141.824-85.376 141.824-85.376a29.952 29.952 0 0 1 30.336 0l133.632 83.328a42.496 42.496 0 0 0 17.152 2.688 36.48 36.48 0 0 0 16.512-2.688l140.8-84.736a29.952 29.952 0 0 1 30.336 0s130.048 79.872 138.368 85.376a14.848 14.848 0 0 0 22.016-12.8V269.44a36.736 36.736 0 0 0-38.016-35.84z m-101.248 404.992H302.976a35.2 35.2 0 0 1 0-70.272h418.048a35.2 35.2 0 0 1 0 70.272z m0-159.104H302.976a35.2 35.2 0 0 1 0-70.272h418.048a35.2 35.2 0 0 1 0 70.272z" fill="#1296db" p-id="12297"></path></svg>