<?xml version="1.0" standalone="no"?><!DOCTYPE svg PUBLIC "-//W3C//DTD SVG 1.1//EN" "http://www.w3.org/Graphics/SVG/1.1/DTD/svg11.dtd"><svg t="1724510439725" class="icon" viewBox="0 0 1024 1024" version="1.1" xmlns="http://www.w3.org/2000/svg" p-id="7191" xmlns:xlink="http://www.w3.org/1999/xlink" width="200" height="200"><path d="M733.132254 275.303593h-77.618634V156.045795a37.095239 37.095239 0 0 1 37.192262-37.192262h3.638374a37.095239 37.095239 0 0 1 37.192262 37.192262v119.257798z" fill="#2F2E41" p-id="7192"></path><path d="M637.726017 389.710225m-205.36597 0a205.365969 205.365969 0 1 0 410.731939 0 205.365969 205.365969 0 1 0-410.731939 0Z" fill="#2F2E41" p-id="7193"></path><path d="M386.273983 389.710225m-205.365969 0a205.365969 205.365969 0 1 0 410.731939 0 205.365969 205.365969 0 1 0-410.731939 0Z" fill="#2F2E41" p-id="7194"></path><path d="M482.084485 214.259771m-214.259771 0a214.259771 214.259771 0 1 0 428.519542 0 214.259771 214.259771 0 1 0-428.519542 0Z" fill="#2F2E41" p-id="7195"></path><path d="M68.118437 1024c15.362021-40.022108 19.808922-216.28109 100.661666-225.579155 0.808527 0 43.660482-12.936439 44.469009-12.936439 11.319384-2.829846 145.130675-34.76668 169.386498-104.704303 4.446901-12.936439 8.489538-25.064351 11.723648-35.979471 2.425582-8.489538 4.851165-16.574812 6.872483-24.255823a262.40758 262.40758 0 0 0 7.681011-47.298856 176.521753 176.521753 0 0 0-5.255429-54.575602c-6.872483-27.489933 224.366364-27.489933 217.898145 0a177.714331 177.714331 0 0 0-5.255429 54.575602 262.40758 262.40758 0 0 0 7.681011 47.298856c2.021319 7.681011 4.042637 15.766285 6.872483 24.255823 3.23411 11.319384 7.276747 23.043032 11.723648 35.979471 24.255823 69.937623 158.067114 101.874457 169.386498 104.704303 0.808527 0 43.660482 12.936439 44.46901 12.936439 80.44848 8.893802 85.299645 185.557047 100.661666 225.579155z" fill="#FBBEBE" p-id="7196"></path><path d="M487.229015 591.571419a194.855113 209.004343 6.83 1 0 49.71121-415.042234 194.855113 209.004343 6.83 1 0-49.71121 415.042234Z" opacity=".1" p-id="7197"></path><path d="M487.429695 570.371593a194.855113 209.004343 6.83 1 0 49.71121-415.042235 194.855113 209.004343 6.83 1 0-49.71121 415.042235Z" fill="#FBBEBE" p-id="7198"></path><path d="M266.574459 254.282459a118.045006 194.450849 72.199 1 0 370.282663-118.891886 118.045006 194.450849 72.199 1 0-370.282663 118.891886Z" fill="#2F2E41" p-id="7199"></path><path d="M531.404659 1019.148835h144.726411v-324.219502l-144.726411 94.193446z" fill="#F7F8F8" p-id="7200"></path><path d="M347.464666 1019.148835H491.786814v-230.026056l-144.322148-94.193446z" fill="#F7F8F8" p-id="7201"></path><path d="M958.307146 1024c-11.723648-76.810107-28.29846-218.302408-94.193447-225.579155-0.808527 0-44.873273-12.936439-45.277536-12.936439-8.893802-2.425582-90.959337-21.425977-140.279511-61.448085L522.510857 1024z" fill="#AD9A85" p-id="7202"></path><path d="M501.489143 1024l-155.641531-299.963679c-49.320174 40.022108-131.385709 59.022503-140.279511 61.448085-0.808527 0-44.873273 12.936439-45.277536 12.936439C93.991315 805.697592 77.820766 947.189893 65.692854 1024z" fill="#AD9A85" p-id="7203"></path><path d="M264.18634 897.465456l184.344256 126.534544h11.723648l-152.003158-128.555863 46.086064-28.29846-73.171733-82.065535 48.915909-49.724437 14.149231-11.319384-88.938019 61.852349 67.512042 77.618634z" fill="#7D6E5A" p-id="7204"></path><path d="M714.536123 895.444137L562.128701 1024h11.723648l184.344256-126.534544-58.213976-33.958152 67.107778-77.618634-88.938019-61.852349 14.553494 11.319384 48.511647 49.724437-72.76747 82.065535z" fill="#7D6E5A" p-id="7205"></path></svg>