<?xml version="1.0" standalone="no"?><!DOCTYPE svg PUBLIC "-//W3C//DTD SVG 1.1//EN" "http://www.w3.org/Graphics/SVG/1.1/DTD/svg11.dtd"><svg t="1724510467305" class="icon" viewBox="0 0 1024 1024" version="1.1" xmlns="http://www.w3.org/2000/svg" p-id="9801" xmlns:xlink="http://www.w3.org/1999/xlink" width="200" height="200"><path d="M994.133163 943.964255l-6.387445-50.570685c-2.648453-20.707947-29.510157-73.84099-88.620667-85.000568-88.608368-24.680626-196.53076-16.062906-258.564407-76.71083-24.496136-5.93647-20.781743 7.682972-46.520111 8.25694a3510.482892 3510.482892 0 0 1-140.154798 0.0041c-25.738367-0.573968-22.040373-14.201609-46.52831-8.26104-80.712207 77.366793-158.046203 47.586051-247.9132 73.963982-81.974937 24.07796-96.771013 66.920575-99.263675 87.751516l-6.387444 50.566585" fill="#FFFFFF" p-id="9802"></path><path d="M262.557585 481.673988s-7.293494-4.419554-16.153101-9.87225c-8.880106-5.448597-16.337591-26.972399-16.579477-47.770541-0.200889-15.935813-0.377179-31.871626-0.528871-47.807439-0.163991-20.806342 9.568867-34.741466 21.642696-31.07627 12.098427 3.669296 22.036273 6.584233 22.036273 6.584233" fill="#FFEAD6" p-id="9803"></path><path d="M262.557585 481.673988s-7.293494-4.419554-16.153101-9.87225c-8.880106-5.448597-16.337591-26.972399-16.579477-47.770541-0.200889-15.935813-0.377179-31.871626-0.528871-47.807439-0.163991-20.806342 9.568867-34.741466 21.642696-31.07627 12.098427 3.669296 22.036273 6.584233 22.036273 6.584233" fill="#FFEAD6" p-id="9804"></path><path d="M640.560644 731.686271c1.590711 41.510189-40.198262 77.096209-92.855731 77.424191-15.833319 0.102494-31.670737 0.102494-47.504056 0-52.657469-0.332082-94.434143-35.914001-92.843432-77.424191l4.579445-137.842527c1.590711-41.563486 42.162053-74.074677 90.17858-73.783593 14.562389 0.094295 29.124779 0.094295 43.687168 0 48.016527-0.291084 88.591969 32.224206 90.18268 73.783593l4.575346 137.842527z" fill="#FFEAD6" p-id="9805"></path><path d="M641.130512 748.970909c1.578412 41.514289-40.501646 73.369516-93.339504 73.705697-15.894815 0.102494-31.78963 0.102494-47.684446-0.004099-52.833759-0.327982-94.905617-32.187308-93.327205-73.701598l5.153413-155.131265c1.590711-41.559387 42.162053-74.074677 90.17858-73.783592 14.562389 0.094295 29.124779 0.094295 43.687169 0 48.016527-0.291084 88.591969 32.224206 90.18268 73.783592l5.149313 155.131265z" fill="#FFEAD6" p-id="9806"></path><path d="M635.981199 593.839644c-0.024599-0.729759-0.155791-1.43492-0.204989-2.156479-53.145342 1.762902-106.323482 2.271274-159.485222 1.516915a3160.784658 3160.784658 0 0 1-65.374961 31.338656l-3.558602 107.147535c-0.512471 15.300348 4.763935 29.764343 14.312303 41.985763 13.816231-11.725347 44.941698-40.091668 112.756024-40.165464 54.157985-0.241887 80.49082 27.197886 92.859831 38.710045 8.843208-11.909837 13.758834-25.824463 13.266861-40.530344l-4.571245-137.846627c-0.0041 0-0.0041 0 0 0z" fill="#D59758" opacity=".15" p-id="9807"></path><path d="M786.176338 481.608392s7.281195-4.419554 16.144902-9.872251c8.888305-5.452696 16.34169-26.976498 16.571277-47.77874 0.196789-15.935813 0.368979-31.867526 0.516571-47.803339 0.155791-20.806342-9.572967-34.741466-21.659094-31.072171-12.090227 3.669296-22.032174 6.588333-22.032174 6.588334" fill="#FFEAD6" p-id="9808"></path><path d="M786.176338 481.608392s7.281195-4.419554 16.144902-9.872251c8.888305-5.452696 16.34169-26.976498 16.571277-47.77874 0.196789-15.935813 0.368979-31.867526 0.516571-47.803339 0.155791-20.806342-9.572967-34.741466-21.659094-31.072171-12.090227 3.669296-22.032174 6.588333-22.032174 6.588334" fill="#FFEAD6" p-id="9809"></path><path d="M791.067366 552.96082c1.939192 23.512191-14.291804 55.416615-36.492069 70.60217a3202.134956 3202.134956 0 0 1-143.619105 92.958226c-23.319502 14.287705-62.714209 18.403876-87.001257 18.346478-24.295248 0.061497-63.681755-4.054674-87.005357-18.346478a3196.395276 3196.395276 0 0 1-143.623206-92.962326c-22.196164-15.181455-38.423061-47.085879-36.483869-70.60217l21.794387-271.741074c1.955591-23.524491 24.000064-41.079713 49.016871-39.460303a3025.889867 3025.889867 0 0 0 392.602347 0c25.020907-1.61941 47.06538 15.931713 49.020971 39.460303l21.790287 271.745174z" fill="#FFEAD6" p-id="9810"></path><path d="M751.545566 578.916475a3194.853761 3194.853761 0 0 1-142.159587 74.689643c-22.893126 14.275405-61.582672 18.375177-85.435144 18.32188-23.856572 0.057397-62.537919-4.042375-85.443344-18.32188a3194.853761 3194.853761 0 0 1-142.159587-74.689643c-39.853882-25.832662-33.24095-103.256852-31.43295-126.728046l-8.08065 100.768291c-1.935092 23.512191 14.291804 55.420715 36.483869 70.60217a3196.251784 3196.251784 0 0 0 143.619105 92.962326c23.327701 14.287705 62.714209 18.403876 87.009457 18.346478 24.295248 0.061497 63.677655-4.054674 87.001257-18.346478a3202.134956 3202.134956 0 0 0 143.619106-92.958226c22.200264-15.185555 38.418961-47.085879 36.483869-70.60217l-6.740025-84.041222c1.824398 23.467094 7.051607 84.164215-32.765376 109.996877z" fill="#D59758" opacity=".15" p-id="9811"></path><path d="M229.693814 413.097105c-0.020499-0.036898 4.366257 36.569964 35.22524 39.091324l-2.365569 29.485559c-0.032798 0.065596-38.045882-13.947424-32.859671-68.576883zM819.37219 412.990511c0.020499-0.032798-4.358057 36.574064-35.217039 39.107723l2.373768 29.481459c0.036898 0.065596 38.049982-13.959723 32.843271-68.589182z" fill="#D59758" opacity=".15" p-id="9812"></path><path d="M1001.328262 1000.910085l-13.578444-107.516515c-2.648453-20.707947-29.510157-73.84099-88.620667-85.000568-88.608368-24.680626-196.53076-16.062906-258.564407-76.71083 18.916347 53.251936-101.186468 228.176899-120.771078 234.26096-20.83914-3.661096-114.25654-233.937078-112.440341-234.26506-43.945454 33.622228-157.18935 48.192817-247.9091 73.968082-81.974937 24.07796-96.771013 66.920575-99.259575 87.751516l-13.578444 107.512415" fill="#3F6296" p-id="9813"></path><path d="M284.524162 775.574328c0.122993 0-29.522457 53.657813 3.6037 55.900389 33.158954 2.185178 63.193882 3.570901 63.193882 3.575001l-1.898194 39.726788a3453.787148 3453.787148 0 0 0 170.370116 91.166626 3685.227465 3685.227465 0 0 1-136.284614-184.235545c-0.131193 0.291084-85.201457-18.166089-98.98489-6.133259zM898.985659 807.048276c-35.200641-9.896849-73.131729-14.332802-110.164968-20.006886-0.012299 0-0.016399-0.0082-0.040998-0.008199-0.17219-0.032798-0.368979-0.053297-0.549369-0.086096-56.289867-8.597221-110.554446-20.261072-147.731177-56.621948-3.23472 1.848997-6.47354 3.575001-9.69596 5.239508 26.931401 39.115923 51.599728 50.644481 89.329927 62.16484a3378.224254 3378.224254 0 0 1-32.166809 17.178044 3403.679737 3403.679737 0 0 1-168.176739 151.027393 3483.084117 3483.084117 0 0 0 198.748737-94.67193l-1.984289-37.234127c32.277503-1.721904 64.534508-3.874284 96.766913-6.461241 0 0-0.057397-0.17219-0.127093-0.475573 39.206118 20.564455 56.831037 60.574128 58.450447 77.748072l4.792633 50.746975a3754.173327 3754.173327 0 0 0 117.528158-12.967578l-6.391544-50.570685c-2.648453-20.703848-29.501958-73.84099-88.587869-85.000569z" opacity=".1" p-id="9814"></path><path d="M235.835272 217.972567c6.141458-45.847748 140.085102-147.382696 288.746928-147.796773 148.641326 0.348481 282.650567 101.830132 288.812523 147.66968 5.288706 45.470569-123.768011 97.422877-288.759226 97.267086-165.011715 0.237787-294.072531-51.661224-288.800225-97.139993z" fill="#3F6296" p-id="9815"></path><path d="M340.301557 800.140161a3440.45879 3440.45879 0 0 1-157.279545 40.448348 4308.134492 4308.134492 0 0 1-18.289082-43.117299 3392.520159 3392.520159 0 0 0 155.799528-39.620195c6.502238 14.115514 13.094671 28.214629 19.769099 42.289146zM738.750178 757.178652a3396.26735 3396.26735 0 0 0 155.93892 39.124123 4306.273195 4306.273195 0 0 1-18.15379 43.182896 3440.475189 3440.475189 0 0 1-157.427136-39.948177c6.633431-14.103215 13.180766-28.222829 19.642006-42.358842z" fill="#5685CC" p-id="9816"></path><path d="M407.353325 731.686271a4503.738704 4503.738704 0 0 0 112.440341 234.26096 3397.1734 3397.1734 0 0 1-144.816239-109.320414l1.680907-40.97312a3541.95684 3541.95684 0 0 1-70.704665-3.595499c-0.303383-0.442775-14.3738-57.31481 101.399656-80.371927z" fill="#4971AD" p-id="9817"></path><path d="M519.789566 965.943132a4195.657253 4195.657253 0 0 0 127.302014-234.482348c95.094207-3.812788 111.505593 79.236289 111.56709 79.535573-23.553189 1.537414-47.114577 2.845242-70.684165 3.923481 0.623165 13.65224 1.25043 27.30858 1.869495 40.96492a3405.639428 3405.639428 0 0 1-170.054434 110.058374" fill="#4971AD" p-id="9818"></path><path d="M647.09568 731.460784c66.490099-1.246331 66.584394 47.819738 66.559795 47.96733-19.797798 1.057741-39.603795 1.947392-59.413893 2.668951l2.308172 63.132386a3410.034384 3410.034384 0 0 1-136.760188 120.705481 3402.617896 3402.617896 0 0 0 170.054434-110.050174c-0.619066-13.65634-1.246331-27.31268-1.869495-40.96492a3636.63287 3636.63287 0 0 0 70.684165-3.923481c-0.057397-0.299283-16.472883-83.344261-111.56299-79.535573zM416.057141 731.960956c-66.490099-0.955247-66.367106 48.106722-66.346607 48.258414 19.801898 0.967546 39.611995 1.775201 59.422092 2.414765l-2.037587 63.144686A3562.144117 3562.144117 0 0 0 510.56508 965.922633a3394.65204 3394.65204 0 0 1-136.71509-109.345014l1.693206-40.969019a3543.678744 3543.678744 0 0 1-70.704665-3.620099c0.061497-0.303383 16.112103-83.422156 111.21861-80.027545z" opacity=".1" p-id="9819"></path><path d="M278.235112 306.043864c-0.389478-1.275029 49.312055 94.942515 242.657293 96.857109 193.423133-1.406222 251.746487-98.292029 251.283213-97.053898a3094.27406 3094.27406 0 0 1-493.940506 0.196789z" opacity=".15" p-id="9820"></path><path d="M770.133931 280.530985c-4.517949-47.655747-114.063851-76.35005-244.973664-76.493543-130.905713 0.250086-240.427017 29.030484-244.908067 76.690332l-2.017088 25.31609A3093.265516 3093.265516 0 0 0 772.171518 305.842976l-2.037587-25.311991z" fill="#3F6296" p-id="9821"></path><path d="M278.526196 302.415566c-0.192689-1.496417 37.832694 71.828002 242.390808 74.222269 75.899075 0.996245 209.272851-19.793698 250.96343-74.419058a3090.305481 3090.305481 0 0 1-493.354238 0.196789z" fill="#4B75B3" p-id="9822"></path><path d="M701.675942 770.084734c8.683317-0.430476 16.026008 4.809032 16.411386 11.749946 0.385379 6.936814-6.395644 12.959379-15.148656 13.398054-8.744813 0.438676-16.087505-4.870529-16.399088-11.815542-0.315682-6.949113 6.46534-12.893782 15.136358-13.332458zM350.985563 770.322521c8.675117 0.422276 15.468439 6.362846 15.165056 13.307859s-7.641975 12.266517-16.394988 11.840141c-8.748913-0.426376-15.538135-6.432542-15.160956-13.377555 0.381279-6.945013 7.715771-12.196821 16.390888-11.770445zM721.748425 893.504264a3698.670617 3698.670617 0 0 0 108.332369-7.441086l2.172879 26.017152c-36.336277 3.033831-72.709453 5.534692-109.103126 7.494383l-1.402122-26.070449z" fill="#FFFF00" p-id="9823"></path><path d="M343.179597 316.522881a2894.119102 2894.119102 0 0 0 41.153509 38.279569c26.341034 5.862674 60.082156 14.746879 103.318349 15.259351a2876.436786 2876.436786 0 0 1-58.606237-49.717933 3077.801177 3077.801177 0 0 1-85.865621-3.820987z" fill="#C5DDFF" opacity=".21" p-id="9824"></path><path d="M524.807687 105.204244c119.709236 0.282884 232.748144 61.529375 278.891076 109.681195-12.545302-45.26558-142.016095-136.784786-280.383393-137.25626-142.233383 0.426376-275.545662 97.972246-281.318141 141.651215-0.020499 0.229587 5.760179 0.307483 5.743781 0.53707 43.30179-48.914377 153.876735-114.338535 277.066677-114.61322z" fill="#B7CCEB" opacity=".2" p-id="9825"></path><path d="M570.647235 374.546951c-0.057397 0.504272 106.762157-8.060151 127.851384-63.653057 20.798142-54.912343-34.442183-93.905273-34.1388-94.040565-0.307483 0.71336 120.037218 15.226552 107.815799 88.993746 0.303383-0.578068-61.131697 64.263923-201.528383 68.699876z" opacity=".15" p-id="9826"></path><path d="M528.120303 119.237763a3631.020283 3631.020283 0 0 0 20.367666 39.726788c15.152757 2.004788 30.338311 3.890683 45.556664 5.661785a2764.08664 2764.08664 0 0 1-32.539889 31.596941c2.804244 14.55419 5.645386 29.10838 8.527526 43.65437a2811.717788 2811.717788 0 0 1-41.768475-20.318469 2808.655259 2808.655259 0 0 1-41.706979 20.437363c2.837042-14.55829 5.637186-29.116579 8.400433-43.678969a2734.055811 2734.055811 0 0 1-32.625984-31.506746c15.210153-1.812099 30.391608-3.743092 45.536165-5.792978a3557.113697 3557.113697 0 0 0 20.252873-39.780085z" fill="#FFFF00" p-id="9827"></path><path d="M664.355719 216.849229c0.848653 0.045097 70.020002-85.890219-4.427753-120.078216-74.18947-33.696024 135.226873 48.811883 153.458558 121.074461-0.114794-0.106594 9.51557 25.943356-45.421372 50.734676a2762.065452 2762.065452 0 0 1-103.609433-51.730921z" opacity=".15" p-id="9828"></path><path d="M429.041118 320.343868l3.398711-110.956223a2904.712912 2904.712912 0 0 1-84.016624 17.383032l-5.243608 89.752204c28.604108 1.672707 57.228714 2.947736 85.861521 3.820987z" fill="#C5DDFF" opacity=".21" p-id="9829"></path></svg>