<?xml version="1.0" standalone="no"?><!DOCTYPE svg PUBLIC "-//W3C//DTD SVG 1.1//EN" "http://www.w3.org/Graphics/SVG/1.1/DTD/svg11.dtd"><svg t="1724510410380" class="icon" viewBox="0 0 1024 1024" version="1.1" xmlns="http://www.w3.org/2000/svg" p-id="6039" xmlns:xlink="http://www.w3.org/1999/xlink" width="200" height="200"><path d="M151.051537 495.21764c2.014872 114.068952 99.293224 210.914663 213.50639 213.016064a198.013713 198.013713 0 0 0 68.019443-10.90256c24.458651 6.028135 49.852632 9.324449 75.984162 9.316208a317.669918 317.669918 0 0 0 96.746821-15.142443c24.850089 17.960792 55.200901 28.245292 88.22997 27.557187 83.796427-1.936585 154.955609-72.980396 157.024046-156.896315 0.461484-20.948077-3.46525-40.820731-10.972606-58.909254-14.437856-67.405505-0.111251-66.915178 16.065412-120.344311 20.1446-66.606148 1.236118-142.034058-60.330791-165.223628C699.253308 182.434508 721.107871 13.049284 508.561532 34.19926c-192.146274 21.203541-164.679736 76.499211-261.389473 129.68524-134.942862 70.594689-23.667536 141.102849-87.570707 271.579205-2.929599 19.93858-5.780911 39.856559-8.549815 59.753935z" p-id="6040"></path><path d="M299.039562 435.533752s-5.583132-4.482987-12.303492-10.037277c-6.753324-5.554289-10.980847-26.201577-9.443941-45.818767 1.14959-15.022952 2.323901-30.045904 3.518816-45.068856 1.611074-19.613069 10.247417-32.299759 19.246354-28.33594a1320.421053 1320.421053 0 0 0 16.531016 7.103557" fill="#FFEAD6" p-id="6041"></path><path d="M299.039562 435.533752s-5.583132-4.482987-12.303492-10.037277c-6.753324-5.554289-10.980847-26.201577-9.443941-45.818767 1.14959-15.022952 2.323901-30.045904 3.518816-45.068856 1.611074-19.613069 10.247417-32.299759 19.246354-28.33594a1320.421053 1320.421053 0 0 0 16.531016 7.103557" fill="#FFEAD6" p-id="6042"></path><path d="M977.94019 976.417705c-9.893063-35.443618-25.089071-115.251505-34.561854-150.76517-5.24114-19.180428-36.881635-66.029293-91.637534-71.87201-83.104201-14.2648-234.343216 0.960052-237.779624-59.449027a54895.827459 54895.827459 0 0 1-8.39736-130.344503c-2.83483-39.287945-37.45437-69.193755-77.059585-68.761114-12.076871 0.148334-24.13314 0.148334-36.210011 0-39.613456-0.436762-74.232995 29.460808-77.067826 68.761114-2.744182 43.449541-5.541928 86.899083-8.39324 130.344503-4.895027 76.853565-143.912957 41.706615-227.800032 57.669017-76.981297 16.226107-96.647932 54.220248-101.596523 73.65202-9.472783 35.517785-24.65643 115.321552-34.557734 150.76517" fill="#FFEAD6" p-id="6043"></path><path d="M605.563818 563.991115c-0.032963-0.683985-0.164816-1.355609-0.226622-2.043714-45.068856 2.768904-90.277805 3.560019-135.424947 2.385707a1436.414228 1436.414228 0 0 1-56.527668 28.686174c-2.146725 33.770739-4.334653 67.549718-6.555545 101.316337-1.545147 21.969934-19.571865 41.920876-102.177499 52.530887-17.857782 12.340576 16.05305 33.708933 19.559504 38.764654 14.598551-9.814775 104.468437-53.099501 195.677451-54.026589 96.038114-0.222501 183.92609 37.940576 197.189635 47.656462 2.538162-3.88553 40.017254-22.983551 23.902398-33.445227-105.927056 0.910607-126.471334-42.955094-127.031708-51.480187-2.847191-43.445421-5.636697-86.890842-8.384999-130.344504z" fill="#D59758" opacity=".15" p-id="6044"></path><path d="M722.409915 435.438983c-0.00412 0 5.579012-4.482987 12.295252-10.041397 6.765685-5.55841 10.968485-26.205698 9.435699-45.822888a27640.006438 27640.006438 0 0 0-3.535297-45.068855c-1.623435-19.61719-10.255657-32.295638-19.275197-28.331821-9.044262 3.972059-16.539256 7.111798-16.535136 7.111798" fill="#FFEAD6" p-id="6045"></path><path d="M722.409915 435.438983c-0.00412 0 5.579012-4.482987 12.295252-10.041397 6.765685-5.55841 10.968485-26.205698 9.435699-45.822888a27640.006438 27640.006438 0 0 0-3.535297-45.068855c-1.623435-19.61719-10.255657-32.295638-19.275197-28.331821-9.044262 3.972059-16.539256 7.111798-16.535136 7.111798" fill="#FFEAD6" p-id="6046"></path><path d="M707.25099 334.950845c-9.097827-49.238693-44.450797-118.836247-44.450797-118.836247-49.852632-60.404957-105.770481-89.371318-259.592982-35.192274 0.432641-0.144214-74.566747 19.988025-85.992596 128.020602v0.008241a20135.97193 20135.97193 0 0 1-28.11756 193.567809c-3.399324 22.072944 7.787542 52.98001 25.686528 68.262547a1450.992178 1450.992178 0 0 0 119.565556 92.160824c20.033349 13.959891 54.689973 18.191534 76.050088 18.105005 21.360116 0.090649 56.0291-4.145115 76.054209-18.105005a1454.515113 1454.515113 0 0 0 119.569677-92.156704c17.907227-15.278416 29.098213-46.181362 25.690648-68.262546a19393.901561 19393.901561 0 0 1-24.462771-167.572252z" fill="#FFEAD6" p-id="6047"></path><path d="M278.087365 369.368485c-0.016482-0.053565 0.412039 34.722549 25.006664 38.455626-1.339128 9.23792-2.694737 18.479961-4.046226 27.722002-0.090649 0.082408-29.720393-14.919942-20.960438-66.177628zM743.609335 369.216031c0.016482-0.053565-0.395558 34.722549-24.97782 38.467986 1.347368 9.23792 2.702978 18.479961 4.066827 27.722003 0.086528 0.082408 29.699791-14.940544 20.910993-66.189989z" fill="#D59758" opacity=".15" p-id="6048"></path><path d="M977.94019 976.417705c-9.893063-35.443618-25.089071-115.251505-34.561854-150.76517-5.24114-19.180428-36.881635-66.029293-91.637534-71.87201-38.529792-7.65981-74.941703-2.616449-110.735555-7.97296-24.083695 55.880766-113.224272 97.344278-222.591856 97.620344-109.890874 0.675744-199.731917-40.474618-223.873298-96.491357-36.251215 5.220538-70.895477-4.392339-115.51521 5.063963-76.968936 16.226107-96.635571 54.220248-101.584162 73.65202-9.472783 35.517785-24.65643 115.321552-34.557734 150.76517" fill="#759993" p-id="6049"></path><path d="M700.596556 528.765878a1423.908836 1423.908836 0 0 1-116.203316 91.868276c-19.481217 13.926927-53.206631 18.133848-73.998133 18.051441-20.779141 0.086528-54.508675-4.120393-74.006374-18.055561a1421.238822 1421.238822 0 0 1-116.195075-91.864156c-31.665218-26.086206-20.132239-98.889425-17.095509-120.937647a21055.26863 21055.26863 0 0 1-13.992854 94.698986c-3.399324 22.068823 7.787542 52.98001 25.682408 68.254306a1452.48376 1452.48376 0 0 0 119.557316 92.164944c20.04159 13.964011 54.698213 18.199775 76.054208 18.109126 21.360116 0.094769 56.02498-4.145115 76.054209-18.109126a1454.06187 1454.06187 0 0 0 119.569677-92.160824c17.907227-15.274296 29.098213-46.185482 25.690648-68.266667a20728.892323 20728.892323 0 0 1-11.706035-78.975567c3.049091 22.044101 12.212844 79.140383-19.41117 105.222469z" fill="#D59758" opacity=".15" p-id="6050"></path><path d="M521.520167 777.209078c19.369966-0.115371 35.270562 5.220538 35.505425 12.373539 0.238983 7.13652-15.575085 13.403638-35.332368 13.519009-19.740802 0.131853-35.645517-5.929245-35.513665-13.078127 0.144214-7.148881 15.970642-12.686689 35.340608-12.814421z" fill="#FFFFFF" opacity=".54" p-id="6051"></path></svg>